<?xml version='1.0' encoding='UTF-8'?>
<svg width="41mm" height="41mm" version="1.1" xmlns="http://www.w3.org/2000/svg"><svg:rect xmlns:svg="http://www.w3.org/2000/svg" x="4mm" y="4mm" width="1mm" height="1mm"/><svg:rect xmlns:svg="http://www.w3.org/2000/svg" x="5mm" y="4mm" width="1mm" height="1mm"/><svg:rect xmlns:svg="http://www.w3.org/2000/svg" x="6mm" y="4mm" width="1mm" height="1mm"/><svg:rect xmlns:svg="http://www.w3.org/2000/svg" x="7mm" y="4mm" width="1mm" height="1mm"/><svg:rect xmlns:svg="http://www.w3.org/2000/svg" x="8mm" y="4mm" width="1mm" height="1mm"/><svg:rect xmlns:svg="http://www.w3.org/2000/svg" x="9mm" y="4mm" width="1mm" height="1mm"/><svg:rect xmlns:svg="http://www.w3.org/2000/svg" x="10mm" y="4mm" width="1mm" height="1mm"/><svg:rect xmlns:svg="http://www.w3.org/2000/svg" x="12mm" y="4mm" width="1mm" height="1mm"/><svg:rect xmlns:svg="http://www.w3.org/2000/svg" x="16mm" y="4mm" width="1mm" height="1mm"/><svg:rect xmlns:svg="http://www.w3.org/2000/svg" x="18mm" y="4mm" width="1mm" height="1mm"/><svg:rect xmlns:svg="http://www.w3.org/2000/svg" x="19mm" y="4mm" width="1mm" height="1mm"/><svg:rect xmlns:svg="http://www.w3.org/2000/svg" x="20mm" y="4mm" width="1mm" height="1mm"/><svg:rect xmlns:svg="http://www.w3.org/2000/svg" x="21mm" y="4mm" width="1mm" height="1mm"/><svg:rect xmlns:svg="http://www.w3.org/2000/svg" x="22mm" y="4mm" width="1mm" height="1mm"/><svg:rect xmlns:svg="http://www.w3.org/2000/svg" x="24mm" y="4mm" width="1mm" height="1mm"/><svg:rect xmlns:svg="http://www.w3.org/2000/svg" x="30mm" y="4mm" width="1mm" height="1mm"/><svg:rect xmlns:svg="http://www.w3.org/2000/svg" x="31mm" y="4mm" width="1mm" height="1mm"/><svg:rect xmlns:svg="http://www.w3.org/2000/svg" x="32mm" y="4mm" width="1mm" height="1mm"/><svg:rect xmlns:svg="http://www.w3.org/2000/svg" x="33mm" y="4mm" width="1mm" height="1mm"/><svg:rect xmlns:svg="http://www.w3.org/2000/svg" x="34mm" y="4mm" width="1mm" height="1mm"/><svg:rect xmlns:svg="http://www.w3.org/2000/svg" x="35mm" y="4mm" width="1mm" height="1mm"/><svg:rect xmlns:svg="http://www.w3.org/2000/svg" x="36mm" y="4mm" width="1mm" height="1mm"/><svg:rect xmlns:svg="http://www.w3.org/2000/svg" x="4mm" y="5mm" width="1mm" height="1mm"/><svg:rect xmlns:svg="http://www.w3.org/2000/svg" x="10mm" y="5mm" width="1mm" height="1mm"/><svg:rect xmlns:svg="http://www.w3.org/2000/svg" x="13mm" y="5mm" width="1mm" height="1mm"/><svg:rect xmlns:svg="http://www.w3.org/2000/svg" x="14mm" y="5mm" width="1mm" height="1mm"/><svg:rect xmlns:svg="http://www.w3.org/2000/svg" x="15mm" y="5mm" width="1mm" height="1mm"/><svg:rect xmlns:svg="http://www.w3.org/2000/svg" x="19mm" y="5mm" width="1mm" height="1mm"/><svg:rect xmlns:svg="http://www.w3.org/2000/svg" x="22mm" y="5mm" width="1mm" height="1mm"/><svg:rect xmlns:svg="http://www.w3.org/2000/svg" x="23mm" y="5mm" width="1mm" height="1mm"/><svg:rect xmlns:svg="http://www.w3.org/2000/svg" x="24mm" y="5mm" width="1mm" height="1mm"/><svg:rect xmlns:svg="http://www.w3.org/2000/svg" x="26mm" y="5mm" width="1mm" height="1mm"/><svg:rect xmlns:svg="http://www.w3.org/2000/svg" x="27mm" y="5mm" width="1mm" height="1mm"/><svg:rect xmlns:svg="http://www.w3.org/2000/svg" x="28mm" y="5mm" width="1mm" height="1mm"/><svg:rect xmlns:svg="http://www.w3.org/2000/svg" x="30mm" y="5mm" width="1mm" height="1mm"/><svg:rect xmlns:svg="http://www.w3.org/2000/svg" x="36mm" y="5mm" width="1mm" height="1mm"/><svg:rect xmlns:svg="http://www.w3.org/2000/svg" x="4mm" y="6mm" width="1mm" height="1mm"/><svg:rect xmlns:svg="http://www.w3.org/2000/svg" x="6mm" y="6mm" width="1mm" height="1mm"/><svg:rect xmlns:svg="http://www.w3.org/2000/svg" x="7mm" y="6mm" width="1mm" height="1mm"/><svg:rect xmlns:svg="http://www.w3.org/2000/svg" x="8mm" y="6mm" width="1mm" height="1mm"/><svg:rect xmlns:svg="http://www.w3.org/2000/svg" x="10mm" y="6mm" width="1mm" height="1mm"/><svg:rect xmlns:svg="http://www.w3.org/2000/svg" x="12mm" y="6mm" width="1mm" height="1mm"/><svg:rect xmlns:svg="http://www.w3.org/2000/svg" x="17mm" y="6mm" width="1mm" height="1mm"/><svg:rect xmlns:svg="http://www.w3.org/2000/svg" x="18mm" y="6mm" width="1mm" height="1mm"/><svg:rect xmlns:svg="http://www.w3.org/2000/svg" x="19mm" y="6mm" width="1mm" height="1mm"/><svg:rect xmlns:svg="http://www.w3.org/2000/svg" x="20mm" y="6mm" width="1mm" height="1mm"/><svg:rect xmlns:svg="http://www.w3.org/2000/svg" x="22mm" y="6mm" width="1mm" height="1mm"/><svg:rect xmlns:svg="http://www.w3.org/2000/svg" x="23mm" y="6mm" width="1mm" height="1mm"/><svg:rect xmlns:svg="http://www.w3.org/2000/svg" x="24mm" y="6mm" width="1mm" height="1mm"/><svg:rect xmlns:svg="http://www.w3.org/2000/svg" x="26mm" y="6mm" width="1mm" height="1mm"/><svg:rect xmlns:svg="http://www.w3.org/2000/svg" x="27mm" y="6mm" width="1mm" height="1mm"/><svg:rect xmlns:svg="http://www.w3.org/2000/svg" x="30mm" y="6mm" width="1mm" height="1mm"/><svg:rect xmlns:svg="http://www.w3.org/2000/svg" x="32mm" y="6mm" width="1mm" height="1mm"/><svg:rect xmlns:svg="http://www.w3.org/2000/svg" x="33mm" y="6mm" width="1mm" height="1mm"/><svg:rect xmlns:svg="http://www.w3.org/2000/svg" x="34mm" y="6mm" width="1mm" height="1mm"/><svg:rect xmlns:svg="http://www.w3.org/2000/svg" x="36mm" y="6mm" width="1mm" height="1mm"/><svg:rect xmlns:svg="http://www.w3.org/2000/svg" x="4mm" y="7mm" width="1mm" height="1mm"/><svg:rect xmlns:svg="http://www.w3.org/2000/svg" x="6mm" y="7mm" width="1mm" height="1mm"/><svg:rect xmlns:svg="http://www.w3.org/2000/svg" x="7mm" y="7mm" width="1mm" height="1mm"/><svg:rect xmlns:svg="http://www.w3.org/2000/svg" x="8mm" y="7mm" width="1mm" height="1mm"/><svg:rect xmlns:svg="http://www.w3.org/2000/svg" x="10mm" y="7mm" width="1mm" height="1mm"/><svg:rect xmlns:svg="http://www.w3.org/2000/svg" x="12mm" y="7mm" width="1mm" height="1mm"/><svg:rect xmlns:svg="http://www.w3.org/2000/svg" x="13mm" y="7mm" width="1mm" height="1mm"/><svg:rect xmlns:svg="http://www.w3.org/2000/svg" x="17mm" y="7mm" width="1mm" height="1mm"/><svg:rect xmlns:svg="http://www.w3.org/2000/svg" x="18mm" y="7mm" width="1mm" height="1mm"/><svg:rect xmlns:svg="http://www.w3.org/2000/svg" x="20mm" y="7mm" width="1mm" height="1mm"/><svg:rect xmlns:svg="http://www.w3.org/2000/svg" x="22mm" y="7mm" width="1mm" height="1mm"/><svg:rect xmlns:svg="http://www.w3.org/2000/svg" x="24mm" y="7mm" width="1mm" height="1mm"/><svg:rect xmlns:svg="http://www.w3.org/2000/svg" x="26mm" y="7mm" width="1mm" height="1mm"/><svg:rect xmlns:svg="http://www.w3.org/2000/svg" x="27mm" y="7mm" width="1mm" height="1mm"/><svg:rect xmlns:svg="http://www.w3.org/2000/svg" x="30mm" y="7mm" width="1mm" height="1mm"/><svg:rect xmlns:svg="http://www.w3.org/2000/svg" x="32mm" y="7mm" width="1mm" height="1mm"/><svg:rect xmlns:svg="http://www.w3.org/2000/svg" x="33mm" y="7mm" width="1mm" height="1mm"/><svg:rect xmlns:svg="http://www.w3.org/2000/svg" x="34mm" y="7mm" width="1mm" height="1mm"/><svg:rect xmlns:svg="http://www.w3.org/2000/svg" x="36mm" y="7mm" width="1mm" height="1mm"/><svg:rect xmlns:svg="http://www.w3.org/2000/svg" x="4mm" y="8mm" width="1mm" height="1mm"/><svg:rect xmlns:svg="http://www.w3.org/2000/svg" x="6mm" y="8mm" width="1mm" height="1mm"/><svg:rect xmlns:svg="http://www.w3.org/2000/svg" x="7mm" y="8mm" width="1mm" height="1mm"/><svg:rect xmlns:svg="http://www.w3.org/2000/svg" x="8mm" y="8mm" width="1mm" height="1mm"/><svg:rect xmlns:svg="http://www.w3.org/2000/svg" x="10mm" y="8mm" width="1mm" height="1mm"/><svg:rect xmlns:svg="http://www.w3.org/2000/svg" x="14mm" y="8mm" width="1mm" height="1mm"/><svg:rect xmlns:svg="http://www.w3.org/2000/svg" x="15mm" y="8mm" width="1mm" height="1mm"/><svg:rect xmlns:svg="http://www.w3.org/2000/svg" x="16mm" y="8mm" width="1mm" height="1mm"/><svg:rect xmlns:svg="http://www.w3.org/2000/svg" x="17mm" y="8mm" width="1mm" height="1mm"/><svg:rect xmlns:svg="http://www.w3.org/2000/svg" x="19mm" y="8mm" width="1mm" height="1mm"/><svg:rect xmlns:svg="http://www.w3.org/2000/svg" x="20mm" y="8mm" width="1mm" height="1mm"/><svg:rect xmlns:svg="http://www.w3.org/2000/svg" x="24mm" y="8mm" width="1mm" height="1mm"/><svg:rect xmlns:svg="http://www.w3.org/2000/svg" x="27mm" y="8mm" width="1mm" height="1mm"/><svg:rect xmlns:svg="http://www.w3.org/2000/svg" x="30mm" y="8mm" width="1mm" height="1mm"/><svg:rect xmlns:svg="http://www.w3.org/2000/svg" x="32mm" y="8mm" width="1mm" height="1mm"/><svg:rect xmlns:svg="http://www.w3.org/2000/svg" x="33mm" y="8mm" width="1mm" height="1mm"/><svg:rect xmlns:svg="http://www.w3.org/2000/svg" x="34mm" y="8mm" width="1mm" height="1mm"/><svg:rect xmlns:svg="http://www.w3.org/2000/svg" x="36mm" y="8mm" width="1mm" height="1mm"/><svg:rect xmlns:svg="http://www.w3.org/2000/svg" x="4mm" y="9mm" width="1mm" height="1mm"/><svg:rect xmlns:svg="http://www.w3.org/2000/svg" x="10mm" y="9mm" width="1mm" height="1mm"/><svg:rect xmlns:svg="http://www.w3.org/2000/svg" x="12mm" y="9mm" width="1mm" height="1mm"/><svg:rect xmlns:svg="http://www.w3.org/2000/svg" x="13mm" y="9mm" width="1mm" height="1mm"/><svg:rect xmlns:svg="http://www.w3.org/2000/svg" x="14mm" y="9mm" width="1mm" height="1mm"/><svg:rect xmlns:svg="http://www.w3.org/2000/svg" x="15mm" y="9mm" width="1mm" height="1mm"/><svg:rect xmlns:svg="http://www.w3.org/2000/svg" x="17mm" y="9mm" width="1mm" height="1mm"/><svg:rect xmlns:svg="http://www.w3.org/2000/svg" x="18mm" y="9mm" width="1mm" height="1mm"/><svg:rect xmlns:svg="http://www.w3.org/2000/svg" x="20mm" y="9mm" width="1mm" height="1mm"/><svg:rect xmlns:svg="http://www.w3.org/2000/svg" x="21mm" y="9mm" width="1mm" height="1mm"/><svg:rect xmlns:svg="http://www.w3.org/2000/svg" x="23mm" y="9mm" width="1mm" height="1mm"/><svg:rect xmlns:svg="http://www.w3.org/2000/svg" x="24mm" y="9mm" width="1mm" height="1mm"/><svg:rect xmlns:svg="http://www.w3.org/2000/svg" x="25mm" y="9mm" width="1mm" height="1mm"/><svg:rect xmlns:svg="http://www.w3.org/2000/svg" x="26mm" y="9mm" width="1mm" height="1mm"/><svg:rect xmlns:svg="http://www.w3.org/2000/svg" x="30mm" y="9mm" width="1mm" height="1mm"/><svg:rect xmlns:svg="http://www.w3.org/2000/svg" x="36mm" y="9mm" width="1mm" height="1mm"/><svg:rect xmlns:svg="http://www.w3.org/2000/svg" x="4mm" y="10mm" width="1mm" height="1mm"/><svg:rect xmlns:svg="http://www.w3.org/2000/svg" x="5mm" y="10mm" width="1mm" height="1mm"/><svg:rect xmlns:svg="http://www.w3.org/2000/svg" x="6mm" y="10mm" width="1mm" height="1mm"/><svg:rect xmlns:svg="http://www.w3.org/2000/svg" x="7mm" y="10mm" width="1mm" height="1mm"/><svg:rect xmlns:svg="http://www.w3.org/2000/svg" x="8mm" y="10mm" width="1mm" height="1mm"/><svg:rect xmlns:svg="http://www.w3.org/2000/svg" x="9mm" y="10mm" width="1mm" height="1mm"/><svg:rect xmlns:svg="http://www.w3.org/2000/svg" x="10mm" y="10mm" width="1mm" height="1mm"/><svg:rect xmlns:svg="http://www.w3.org/2000/svg" x="12mm" y="10mm" width="1mm" height="1mm"/><svg:rect xmlns:svg="http://www.w3.org/2000/svg" x="14mm" y="10mm" width="1mm" height="1mm"/><svg:rect xmlns:svg="http://www.w3.org/2000/svg" x="16mm" y="10mm" width="1mm" height="1mm"/><svg:rect xmlns:svg="http://www.w3.org/2000/svg" x="18mm" y="10mm" width="1mm" height="1mm"/><svg:rect xmlns:svg="http://www.w3.org/2000/svg" x="20mm" y="10mm" width="1mm" height="1mm"/><svg:rect xmlns:svg="http://www.w3.org/2000/svg" x="22mm" y="10mm" width="1mm" height="1mm"/><svg:rect xmlns:svg="http://www.w3.org/2000/svg" x="24mm" y="10mm" width="1mm" height="1mm"/><svg:rect xmlns:svg="http://www.w3.org/2000/svg" x="26mm" y="10mm" width="1mm" height="1mm"/><svg:rect xmlns:svg="http://www.w3.org/2000/svg" x="28mm" y="10mm" width="1mm" height="1mm"/><svg:rect xmlns:svg="http://www.w3.org/2000/svg" x="30mm" y="10mm" width="1mm" height="1mm"/><svg:rect xmlns:svg="http://www.w3.org/2000/svg" x="31mm" y="10mm" width="1mm" height="1mm"/><svg:rect xmlns:svg="http://www.w3.org/2000/svg" x="32mm" y="10mm" width="1mm" height="1mm"/><svg:rect xmlns:svg="http://www.w3.org/2000/svg" x="33mm" y="10mm" width="1mm" height="1mm"/><svg:rect xmlns:svg="http://www.w3.org/2000/svg" x="34mm" y="10mm" width="1mm" height="1mm"/><svg:rect xmlns:svg="http://www.w3.org/2000/svg" x="35mm" y="10mm" width="1mm" height="1mm"/><svg:rect xmlns:svg="http://www.w3.org/2000/svg" x="36mm" y="10mm" width="1mm" height="1mm"/><!-- truncated for brevity --></svg>